<svg width="892" height="662" viewBox="0 0 892 662" fill="none" xmlns="http://www.w3.org/2000/svg">
<g clip-path="url(#clip0_164:3)">
<path d="M821.769 160.923C720.528 20.1647 506.663 -36.9329 296.334 24.5626C185.139 57.0734 77.9263 122.214 24.7944 248.346C-70.1845 473.822 129.236 545.833 259.635 568.784C322.689 579.882 382.075 598.524 436.343 623.904C533.975 669.567 706.791 710.029 837.105 519.823C931.558 381.962 889.205 254.682 821.769 160.923Z" fill="#F7F7F7"/>
<path d="M234.812 188.771C234.529 186.534 233.956 184.343 233.108 182.254C233 181.858 232.81 181.49 232.552 181.172C232.294 180.854 231.972 180.593 231.607 180.406C231.119 180.28 230.608 180.274 230.117 180.39L222.47 181.559C221.83 181.588 221.217 181.826 220.725 182.236C219.729 183.283 220.71 184.968 220.679 186.412C220.645 188.035 219.201 189.353 217.636 189.789C216.037 190.112 214.389 190.092 212.799 189.729L202.106 188.069C205.255 187.065 208.058 185.196 210.195 182.676C211.603 181.01 212.351 177.9 210.318 177.112C209.713 176.946 209.083 176.895 208.46 176.963C203.615 177 199.803 172.959 195.268 171.257C192.365 170.238 189.214 170.162 186.265 171.04C183.317 171.918 180.721 173.705 178.851 176.146L184.547 176.421C185.083 176.391 185.615 176.533 186.065 176.825C187.313 177.85 185.761 179.818 185.937 181.423C186.165 183.508 188.936 183.953 191.024 184.164C193.113 184.375 195.763 186.07 194.758 187.912C184.261 191.524 173.578 180.85 162.554 182.164C159.764 182.496 157.129 183.591 154.405 184.28C137.764 188.487 120.56 177.263 103.56 179.64C99.7808 180.284 96.0664 181.262 92.461 182.564C90.1473 183.324 87.7339 184.144 86.0528 185.904C84.3717 187.664 83.7318 190.675 85.3244 192.516C80.9348 192.877 76.5159 192.457 72.273 191.276C73.4203 191.913 74.3748 192.847 75.0363 193.98C75.6977 195.113 76.0417 196.403 76.0322 197.715C69.1783 198.831 62.5059 200.864 56.1945 203.758C57.3724 205.715 58.7483 207.547 60.3004 209.223L51.6235 214.793C54.555 215.531 56.0706 219.524 54.3659 222.019C57.4055 220.668 59.2893 217.173 62.5396 216.464C64.669 216 66.8357 216.87 68.8558 217.688C70.8758 218.505 73.0961 219.298 75.1873 218.685C77.2785 218.071 78.8209 215.362 77.4921 213.636C86.4304 211.03 95.6679 209.588 104.976 209.345C105.694 209.255 106.422 209.393 107.057 209.74C108.269 210.58 107.95 212.394 107.885 213.866C107.82 215.338 108.968 217.273 110.284 216.609C108.735 217.951 110.06 220.478 111.546 221.889C113.032 223.301 114.823 225.248 113.914 227.084C113.676 227.563 113.273 227.947 113.045 228.43C112.37 229.857 113.441 231.521 114.704 232.469C115.967 233.417 117.515 234.079 118.392 235.391C119.269 236.704 118.871 239.001 117.302 239.184L112.842 233.527C111.319 235.106 110.274 237.083 109.83 239.231C114.559 243.093 115.27 250.955 111.311 255.602C109.288 257.977 106.411 259.42 103.9 261.272C101.389 263.125 99.0653 265.762 99.0716 268.881C99.0825 274.269 98.6419 279.274 100.663 284.27C104.389 293.48 108.691 302.448 113.543 311.119C114.818 313.396 116.464 315.892 119.046 316.284C115.783 308.349 112.847 300.29 110.235 292.108C111.936 292.115 113.902 292.25 114.899 293.626C115.724 294.766 115.547 296.316 115.803 297.7C116.13 299.04 116.674 300.318 117.414 301.483L132.993 329.209C134.284 331.508 135.766 333.975 138.234 334.906C139.812 335.501 141.638 335.389 143.09 336.246C144.229 336.917 144.995 338.109 146.156 338.742C149.438 340.531 154.002 337.1 157.068 339.236C157.945 339.847 158.503 340.817 159.311 341.516C162.144 343.967 166.79 342.327 170.06 344.155C172.168 345.334 173.26 347.69 174.384 349.826C177.199 355.175 181.755 360.416 187.789 360.841C189.685 360.975 191.621 360.616 193.473 361.037C195.326 361.459 197.15 363.074 196.853 364.949C196.343 368.164 197.932 371.684 197.505 374.911C196.728 380.788 188.384 383.371 187.667 389.256C187.51 390.545 187.756 391.875 187.449 393.136C187.072 394.682 185.91 395.94 185.497 397.477C184.715 400.389 186.803 403.287 189.097 405.246C191.39 407.205 194.126 408.894 195.38 411.636C196.706 414.535 196.055 417.914 196.486 421.072C197.427 427.965 203.386 433.075 209.519 436.37C211.387 437.374 213.393 438.346 214.603 440.087C216.181 442.36 216.024 445.357 216.551 448.073C217.842 454.724 223.446 460.205 223.605 466.979C223.718 471.793 221.04 476.161 219.44 480.704C217.94 485.056 217.397 489.68 217.848 494.262C218.3 498.843 219.735 503.273 222.056 507.249C223.253 509.268 224.684 511.172 225.531 513.362C227.042 517.268 226.552 521.709 227.945 525.659C229.787 530.882 234.848 535.195 234.364 540.711C236.661 545.478 241.735 547.821 246.837 549.24L255.981 551.783C257.732 552.27 259.562 552.761 261.345 552.408C263.127 552.056 264.829 550.577 264.783 548.761C260.299 547.751 255.671 546.676 251.974 543.946C248.278 541.216 245.746 536.355 247.148 531.981C247.799 529.953 249.182 527.611 247.867 525.935C247.114 524.975 245.737 524.725 244.887 523.849C243.562 522.484 244.017 520.19 244.97 518.544C245.922 516.897 247.299 515.426 247.683 513.563C247.877 512.521 247.748 511.444 247.312 510.478C246.876 509.512 246.155 508.701 245.245 508.156C246.941 507.517 248.483 506.528 249.771 505.255C250.962 503.897 251.511 501.803 250.575 500.259C253.355 500.611 256.638 500.784 258.463 498.659C259.921 496.962 259.821 494.425 259.245 492.264C258.669 490.103 257.695 488.005 257.665 485.769C264.079 486.072 270.507 485.855 276.886 485.118C275.963 482.014 273.867 479.391 271.042 477.805C273.931 477.317 276.563 473.861 277.475 471.08C278.388 468.298 278.155 465.268 277.591 462.395C277.374 461.656 277.345 460.874 277.505 460.12C277.83 459.084 278.848 458.452 279.791 457.912L294.13 449.684C294.985 449.255 295.761 448.683 296.423 447.992C297.925 446.229 297.703 443.568 296.933 441.383C296.164 439.199 294.932 437.145 294.636 434.849C293.749 427.98 301.108 423.052 303.592 416.587C304.566 414.05 304.765 411.292 304.953 408.581C305.156 405.669 305.171 402.287 302.933 400.41C300.788 398.611 297.437 399.013 295.192 397.34C293.134 395.806 292.424 392.826 290.176 391.587C288.134 390.462 285.575 391.178 283.304 390.649C279.306 389.717 276.79 385.113 272.707 384.687C270.403 384.446 267.796 385.571 265.908 384.231C264.244 383.05 264.177 380.676 263.86 378.661C263.305 375.53 261.803 372.644 259.557 370.393C257.31 368.141 254.427 366.631 251.295 366.066C248.92 365.686 246.334 365.83 244.313 364.526C242.267 363.205 241.329 360.733 239.722 358.904C237.131 355.956 233.052 354.909 229.23 354.011L213.684 350.36C210.925 349.712 207.368 349.368 205.887 351.783C205.448 352.703 205.138 353.678 204.964 354.682C204.409 356.497 203.293 358.09 201.775 359.232C200.257 360.374 198.415 361.005 196.516 361.035C195.213 358.815 193.102 357.183 190.624 356.481C189.048 356.042 187.36 355.993 185.857 355.347C185.038 354.948 184.309 354.386 183.716 353.695C183.122 353.005 182.675 352.201 182.403 351.332C182.131 350.463 182.04 349.548 182.134 348.643C182.228 347.737 182.506 346.861 182.951 346.066C183.848 344.472 184.194 342.627 183.936 340.817C183.679 339.006 182.832 337.331 181.527 336.049C178.883 333.678 175.059 333.105 171.514 333.342C170.586 331.318 172.138 329.034 173.811 327.563C175.484 326.092 177.515 324.646 177.879 322.45C178.453 318.995 174.04 316.371 170.69 317.401C167.34 318.431 165.202 321.682 163.788 324.887C162.977 326.726 162.288 328.662 161.008 330.213C159.729 331.763 157.669 332.873 155.72 332.376C152.962 331.671 151.896 328.397 151.286 325.618C150.467 321.89 149.643 318.11 149.815 314.298C149.986 310.485 151.273 306.57 154.087 303.988C158.672 299.782 165.707 300.194 171.896 300.865C170.434 299.219 170.795 296.445 172.359 294.896C173.185 294.163 174.178 293.642 175.25 293.379C176.323 293.116 177.444 293.118 178.516 293.385C180.381 293.773 182.061 294.776 183.285 296.234C185.044 298.377 185.544 301.269 186.873 303.701C188.203 306.132 191.192 308.206 193.638 306.902C195.751 305.775 196.087 302.847 195.561 300.513C195.035 298.178 193.918 295.907 194.109 293.522C194.472 288.97 199.195 286.23 203.362 284.355C207.53 282.48 212.302 279.959 212.962 275.441C212.985 274.556 213.152 273.681 213.457 272.85C213.919 272.116 214.561 271.512 215.323 271.097C227.486 263.065 239.851 254.936 253.753 250.548C254.476 250.319 254.561 250.573 255.298 250.394C256.33 249.799 255.646 248.151 254.657 247.487C253.668 246.823 252.346 246.314 252.095 245.15C251.911 244.295 252.415 243.455 252.547 242.589C252.869 240.463 250.323 238.5 248.346 239.35C247.229 237.873 249.439 236.156 251.225 235.664C256.591 234.189 262.098 233.29 267.654 232.983C268.295 232.881 268.952 232.993 269.523 233.3C270.457 233.946 270.337 235.428 269.676 236.35C269.015 237.271 267.986 237.85 267.162 238.63C266.261 239.507 265.619 240.613 265.305 241.83C264.991 243.046 265.018 244.325 265.382 245.527C268.282 247.001 271.436 248.519 274.648 247.999C277.861 247.48 280.712 243.874 279.202 240.993C277.796 238.311 273.572 237.706 272.846 234.767C271.995 231.325 276.871 228.264 275.773 224.893C275.292 223.416 273.819 222.547 272.689 221.481C271.354 220.174 270.446 218.495 270.085 216.663C269.723 214.831 269.924 212.932 270.661 211.217C268.821 211.54 266.929 211.418 265.145 210.86C263.361 210.303 261.738 209.326 260.41 208.011C257.958 205.539 256.001 201.638 252.519 201.749C249.324 201.851 246.572 205.575 243.584 204.439C242.849 204.159 242.074 203.59 241.362 203.924C241.128 204.075 240.932 204.278 240.789 204.516C240.645 204.754 240.558 205.022 240.533 205.299C239.774 208.926 241.08 213.058 239.101 216.192C236.948 219.603 231.968 220.076 229.358 223.151C227.941 224.821 227.392 227.07 226.09 228.83C224.788 230.59 222.024 231.71 220.461 230.176C221.229 228.598 221.439 226.807 221.056 225.094C220.673 223.382 219.72 221.85 218.353 220.749C216.902 219.803 215.338 219.043 213.697 218.486C211.864 217.711 210.12 216.74 208.496 215.59C207.682 215.1 207.021 214.393 206.586 213.549C206.243 212.492 206.289 211.347 206.717 210.321C207.51 208.051 208.908 206.04 210.76 204.506C212.613 202.971 214.85 201.972 217.23 201.615C219.311 201.332 221.733 201.432 223.11 199.848C223.839 199.009 224.221 197.742 225.279 197.402C225.955 197.266 226.657 197.352 227.281 197.648L235.048 200.379C235.914 200.77 236.868 200.928 237.815 200.837C238.284 200.774 238.712 200.535 239.013 200.17C239.314 199.805 239.465 199.339 239.437 198.867C239.189 197.578 237.204 196.96 237.385 195.66C237.486 195.239 237.712 194.858 238.035 194.568C240.838 191.587 244.266 189.262 248.073 187.76C251.881 186.258 255.974 185.615 260.059 185.878C261.039 187.487 259.489 189.392 258.199 190.765C256.909 192.139 255.872 194.592 257.432 195.649C258.071 195.976 258.783 196.136 259.5 196.115C261.412 196.373 263.271 196.937 265.005 197.783C267.689 198.95 270.321 200.227 272.902 201.614C272.674 199.913 272.456 198.122 273.101 196.532C273.746 194.943 275.58 193.696 277.181 194.315C278.724 194.911 279.515 196.953 281.159 197.14C283.353 197.389 284.218 194.152 283.302 192.146C282.386 190.14 280.572 188.459 280.421 186.259C280.319 184.775 280.884 182.934 279.697 182.035C279.275 181.766 278.796 181.598 278.297 181.545L248.667 176.097C246.908 175.774 244.366 176.022 244.288 177.807C244.244 178.804 245.135 179.79 244.741 180.707C244.319 181.685 242.935 181.596 241.927 181.942C240.363 182.478 239.578 184.334 239.729 185.979C240.004 187.614 240.637 189.168 241.585 190.53C239.657 189.724 236.739 189.576 234.812 188.771Z" fill="#3D3D3D"/>
<path d="M211.17 163.641C209.301 163.023 207.288 162.994 205.403 163.558C203.517 164.122 201.851 165.252 200.63 166.794C200.142 167.436 199.733 168.321 200.141 169.016C200.727 170.012 202.219 169.619 203.319 169.262C204.936 168.685 206.695 168.643 208.338 169.143C209.371 169.497 210.295 170.123 211.333 170.464C211.838 170.675 212.391 170.745 212.932 170.666C213.474 170.587 213.984 170.362 214.407 170.015C215.119 169.29 215.164 168.162 215.165 167.146C215.215 166.806 215.187 166.459 215.085 166.131C214.984 165.803 214.81 165.501 214.577 165.249C214.161 165.009 213.695 164.871 213.215 164.847C212.142 164.648 211.171 164.082 210.471 163.245" fill="#3D3D3D"/>
<path d="M221.854 160.669C221.436 160.646 221.019 160.731 220.643 160.916C220.267 161.101 219.946 161.379 219.709 161.724C219.472 162.069 219.328 162.469 219.29 162.886C219.253 163.302 219.323 163.722 219.495 164.103C220.779 164.453 222.12 164.541 223.439 164.36C224.097 164.258 224.71 163.964 225.2 163.514C225.691 163.065 226.037 162.481 226.196 161.835C224.644 162.117 223.041 161.811 221.702 160.977" fill="#3D3D3D"/>
<path d="M257.7 155.705C254.205 156.447 250.809 157.6 247.585 159.138C249.105 159.722 250.397 160.778 251.271 162.151C252.145 163.524 252.554 165.141 252.439 166.764C252.302 167.387 252.318 168.034 252.485 168.65C252.856 169.55 253.933 169.887 254.879 170.118C256.579 170.635 258.355 170.862 260.131 170.788C261.019 170.742 261.881 170.475 262.64 170.011C263.399 169.548 264.031 168.903 264.477 168.134C264.735 167.405 265.037 166.692 265.381 165.999C267.65 162.547 274.389 166.721 276.824 163.385C277.682 162.21 277.604 160.441 278.722 159.509C279.301 159.104 279.971 158.848 280.673 158.765C285.571 157.793 290.518 157.089 295.493 156.657C297.85 156.452 300.922 155.606 300.942 153.242C292.064 151.5 282.858 152.737 274.756 156.762C271.837 158.223 267.976 161.295 265.164 159.359C264.112 158.634 264.164 156.681 262.715 155.866C261.233 155.032 259.272 155.371 257.7 155.705Z" fill="#3D3D3D"/>
<path d="M286.735 161.13L290.903 161.93C290.135 161.896 289.37 162.026 288.657 162.311C287.944 162.596 287.3 163.03 286.768 163.583C286.236 164.137 285.829 164.797 285.572 165.52C285.316 166.244 285.217 167.013 285.282 167.778C289.185 169.08 293.44 167.813 297.551 167.986C301.663 168.159 306.446 171.093 305.744 175.144C305.532 176.369 304.824 177.593 305.192 178.781C305.45 179.613 306.185 180.203 306.599 180.97C307.464 182.567 306.773 184.587 305.682 186.039C304.591 187.491 303.124 188.65 302.167 190.193C299.785 194.031 301.138 198.992 302.557 203.279C302.967 204.899 303.725 206.411 304.777 207.71C306.879 209.943 310.305 210.137 313.373 210.182C315.606 210.214 318.164 210.104 319.576 208.375C321.42 206.119 320.131 202.598 321.344 199.949C322.447 197.543 325.255 196.512 327.8 195.78C332.462 194.439 337.212 193.299 341.62 191.273C347.092 188.758 352.207 184.839 358.222 184.515C359.909 184.424 361.638 184.623 363.264 184.161C364.889 183.7 366.433 182.295 366.31 180.611C366.205 179.173 364.987 178.116 364.035 177.031C363.083 175.947 362.335 174.279 363.21 173.131L378.976 170.189C377.859 167.146 376.988 163.138 379.556 161.157C380.483 160.443 381.723 160.157 382.512 159.293C383.857 157.82 383.181 155.284 381.629 154.031C380.076 152.779 377.978 152.488 375.99 152.323C369.076 151.75 362.124 152.129 355.197 152.508C341.657 153.25 328.118 153.991 314.578 154.733C311.852 154.882 308.705 154.654 306.205 155.583C304.089 156.37 302.584 157.813 300.164 158.321C295.695 159.257 290.778 158.623 286.735 161.13Z" fill="#3D3D3D"/>
<path d="M361.397 194.044C360.972 193.977 360.538 194.075 360.184 194.319C359.95 194.576 359.811 194.906 359.789 195.253C359.52 196.786 359.841 198.364 360.686 199.671C361.117 200.312 361.712 200.826 362.409 201.16C363.106 201.494 363.88 201.635 364.65 201.57C366.526 201.331 367.909 199.731 369.635 198.95C372.294 197.748 383.586 195.875 375.775 191.658C373.083 190.205 371.343 191.488 369.221 192.445C366.807 193.679 364.102 194.232 361.397 194.044Z" fill="#3D3D3D"/>
<path d="M429.817 158.75C428.905 159.122 428.142 159.785 427.647 160.637C427.419 161.069 427.366 161.572 427.499 162.043C427.632 162.513 427.941 162.914 428.362 163.163C428.702 163.286 429.063 163.344 429.426 163.332L433.134 163.442C434.71 163.489 436.678 163.825 437.101 165.342C437.416 166.468 436.712 167.916 437.561 168.721C437.926 169.002 438.364 169.173 438.823 169.212C440.045 169.526 441.32 169.567 442.56 169.333C445.258 168.609 443.84 166.964 444.69 165.499C445.991 163.257 445.766 164.614 448.057 163.329C449.749 162.38 451.936 160.659 450.523 158.24C448.067 154.034 433.441 156.943 429.817 158.75Z" fill="#3D3D3D"/>
<path d="M503.019 156.635L500.866 156.922C496.009 157.57 491.125 158.223 486.448 159.68C488.472 160.48 490.597 161.001 492.762 161.228C493.954 161.287 495.138 161.455 496.299 161.731C498.365 162.345 500.447 163.932 502.442 163.119C503.68 162.615 504.084 161.328 505.109 160.645C505.817 160.174 508.502 159.412 508.802 158.936C511.228 155.092 504.884 156.386 503.019 156.635Z" fill="#3D3D3D"/>
<path d="M512.476 166.415C509.599 168.022 506.93 169.975 504.528 172.23C503.517 173.18 502.483 174.362 502.575 175.747C502.697 177.587 504.659 178.654 506.358 179.373L513.243 182.285C514.078 181.109 513.314 179.486 512.451 178.33C511.587 177.174 510.562 175.837 510.943 174.446C511.378 172.859 513.315 172.318 514.939 172.044C517.586 171.599 524.725 171.635 523.867 167.373C522.856 162.352 515.132 164.931 512.476 166.415Z" fill="#3D3D3D"/>
<path d="M511.091 450.557C510.436 452.453 510.374 454.686 511.507 456.341C512.78 458.198 515.326 458.891 517.528 458.42C519.722 457.837 521.677 456.581 523.118 454.829C524.437 453.361 525.521 451.7 526.334 449.902C527.468 447.102 528.268 444.178 528.717 441.19L530.854 429.977C531.332 427.47 531.314 419.787 526.703 422.29C525.444 422.974 522.528 428.374 521.208 429.905C518.829 432.664 518.515 435.342 517.262 438.685C515.694 442.873 512.541 446.363 511.091 450.557Z" fill="#3D3D3D"/>
<path d="M754.584 507.94C753.075 507.351 751.611 506.655 750.203 505.856C748.791 509.734 748.04 513.822 747.982 517.949L758.305 512.113C759.857 511.235 761.617 510.015 761.584 508.233C761.598 508.012 761.552 507.793 761.452 507.596C761.351 507.4 761.2 507.234 761.013 507.116C760.784 507.024 760.534 506.995 760.29 507.032C758.759 507.159 757.363 507.912 755.919 508.435C754.476 508.958 752.787 509.235 751.462 508.458" fill="#3D3D3D"/>
<path d="M809.036 511.404C807.903 511.713 806.797 512.109 805.726 512.591C803.357 513.796 801.746 516.083 799.614 517.669C797.574 519.187 795.119 520.02 792.708 520.83C791.999 521.457 792.325 522.718 793.095 523.268C793.922 523.738 794.871 523.952 795.821 523.88C798.325 523.935 800.964 523.96 803.157 522.751C804.393 521.95 805.55 521.033 806.611 520.012C809.176 517.874 812.256 516.463 815.305 515.1C816.415 514.681 817.441 514.068 818.335 513.29C820.251 511.404 820.386 508.495 817.623 507.853C815.391 507.334 811.162 510.717 809.036 511.404Z" fill="#3D3D3D"/>
<path d="M833.096 495.702C833.22 494.404 833.047 493.095 832.591 491.874C832.134 490.653 831.406 489.551 830.461 488.653C830.433 491.249 830.354 494.015 828.893 496.162C827.851 497.691 826.219 498.725 825.078 500.182C823.937 501.639 823.43 503.949 824.769 505.227C825.624 505.878 826.666 506.236 827.741 506.25C830.404 506.563 833.488 506.738 835.356 504.815C836.376 503.766 836.872 502.211 838.116 501.44C838.579 501.245 838.993 500.949 839.326 500.574C839.84 499.758 839.024 498.683 838.105 498.389C837.187 498.095 836.175 498.234 835.252 497.954C834.329 497.675 833.482 496.638 833.955 495.799" fill="#3D3D3D"/>
<path d="M790.335 400.512C788.937 400.851 787.49 400.937 786.062 400.763C783.691 400.328 781.845 398.542 779.93 397.078C775.379 393.615 769.846 391.684 764.127 391.561C758.924 391.463 753.673 392.871 748.563 391.888C748.897 393.744 750.486 395.135 752.182 395.962C753.877 396.789 755.748 397.205 757.451 398.016C760.179 399.326 762.343 401.575 763.546 404.351C764.095 405.63 764.44 407.023 765.271 408.14C766.969 410.423 770.189 410.925 773.031 410.738C776.735 410.495 780.605 409.43 784.051 410.809C786.688 411.864 788.575 414.17 790.776 415.963C792.978 417.756 796.079 419.086 798.607 417.793C795.981 416.943 793.696 415.277 792.084 413.039C790.473 410.8 789.62 408.105 789.65 405.348C792.129 405.575 799.271 405.487 798.886 401.278C798.56 397.711 792.464 400.127 790.335 400.512Z" fill="#3D3D3D"/>
<path d="M757.9 429.535C758.34 427.123 760.748 424.993 759.998 422.658C759.479 421.043 757.606 420.246 755.909 420.206C754.212 420.166 752.545 420.671 750.848 420.719C749.744 420.66 748.637 420.676 747.535 420.766C744.167 421.319 742.091 424.846 738.917 426.1C736.987 426.862 734.819 426.717 732.812 427.244C728.256 428.44 725.373 432.742 722.188 436.21C717.042 441.789 710.338 445.695 702.944 447.423C700.354 448.023 697.569 448.406 695.51 450.087C692.783 452.313 692.112 456.129 691.505 459.595C689.829 469.166 687.267 478.561 683.853 487.659L694.672 489.04C696.729 489.302 698.86 489.559 700.842 488.95C702.282 488.407 703.646 487.681 704.9 486.79C709.719 483.801 715.111 481.856 720.729 481.081C723.562 480.693 726.533 480.622 729.191 481.674C731.85 482.726 734.131 485.112 734.354 487.96C735.503 487.603 736.729 487.564 737.899 487.849C739.069 488.133 740.139 488.729 740.996 489.574C742.69 491.299 743.8 493.512 744.168 495.9C744.453 497.379 744.738 499.151 746.111 499.771C747.232 500.277 748.517 499.732 749.743 499.634C753.902 499.302 757.354 504.147 761.442 503.313C765.827 502.418 766.903 495.857 771.18 494.543C773.637 493.788 777.083 494.706 778.26 492.423C779.296 490.41 777.228 488.088 777.441 485.835C777.704 483.06 780.979 481.882 783.505 480.698C792.211 476.617 796.342 464.909 792.123 456.274C789.624 451.158 784.706 447.131 783.797 441.511C783.098 437.187 784.804 432.144 782.045 428.741C780.641 427.009 778.265 426.054 777.43 423.988C776.904 422.687 777.115 421.212 776.832 419.838C776.549 418.464 775.35 417.027 773.992 417.383C770.05 418.417 768.793 430.582 766.683 433.537C763.475 438.03 756.89 435.071 757.9 429.535Z" fill="#3D3D3D"/>
<path d="M685.05 405.108C683.703 404.731 682.232 404.359 680.942 404.898C679.651 405.437 678.898 407.331 679.933 408.27C688.036 407.955 696.189 407.641 704.223 408.741C713.48 410.008 722.641 413.145 731.938 412.222C726.627 410.657 721.229 409.405 715.771 408.474L706.669 406.737C704.227 406.226 701.76 405.845 699.278 405.596C694.085 405.167 690.155 406.538 685.05 405.108Z" fill="#3D3D3D"/>
<path d="M693.162 376.911C692.489 376.855 691.656 376.807 691.308 377.384C690.976 377.937 691.356 378.666 691.177 379.285C690.933 380.131 689.824 380.347 688.951 380.232C688.077 380.117 687.133 379.841 686.359 380.262C685.966 380.53 685.671 380.918 685.518 381.367C685.365 381.817 685.362 382.304 685.509 382.755C685.826 383.652 686.337 384.467 687.007 385.142C688.152 386.583 689.456 387.889 690.895 389.037C693.68 391.091 697.453 392.081 699.207 395.063C699.454 395.641 699.835 396.152 700.317 396.556C701.159 397.088 702.257 396.683 703.164 396.269L706.342 394.818C706.914 394.612 707.425 394.265 707.828 393.809C708.554 392.824 708.108 391.425 707.498 390.365C706.889 389.304 706.109 388.207 706.24 386.991C706.473 384.824 709.262 383.994 710.409 382.14C711.565 380.27 710.813 377.862 710.946 375.668C711.102 373.103 712.715 369.766 710.119 367.849C707.913 366.22 705.805 367.725 704.221 369.524C700.881 373.316 699.302 377.423 693.162 376.911Z" fill="#3D3D3D"/>
<path d="M712.453 338.582C713.538 340.657 715.799 341.896 716.983 343.917C718.265 346.108 718.119 348.939 719.51 351.063C720.938 353.242 723.81 354.398 724.611 356.877C725.484 359.582 723.502 362.871 725.082 365.235C725.377 365.621 725.749 365.942 726.174 366.177C726.6 366.413 727.069 366.557 727.554 366.602C728.038 366.646 728.526 366.589 728.987 366.436C729.449 366.282 729.873 366.034 730.233 365.707C730.9 364.982 731.256 364.026 731.227 363.042C731.198 362.058 730.785 361.125 730.077 360.44C729.141 359.588 727.798 359.219 727.016 358.224C726.609 357.649 726.338 356.99 726.223 356.295C725.797 354.292 725.866 352.215 726.422 350.243C726.631 349.743 726.684 349.192 726.575 348.661C726.223 347.639 724.838 347.567 723.867 347.093C721.66 346.016 721.713 342.904 722.099 340.481C721.842 342.094 716.09 339.35 715.488 338.436C714.291 336.621 714.942 333.119 714.705 331.113C712.122 332.356 711.126 336.044 712.453 338.582Z" fill="#3D3D3D"/>
<path d="M654.505 370.517C653.443 369.33 651.844 368.088 650.421 368.804C649.335 369.35 649.036 370.851 649.462 371.989C649.98 373.094 650.779 374.045 651.778 374.748C654.744 377.192 657.938 379.398 660.526 382.239C665.156 387.324 667.61 394.185 672.646 398.869C673.658 399.955 674.998 400.679 676.462 400.932C677.929 401.069 679.577 400.13 679.746 398.668C679.885 397.463 679.044 396.384 678.222 395.491C676.266 393.365 674.124 391.408 672.277 389.187C671.424 388.333 670.888 387.215 670.758 386.016C670.748 384.82 671.84 383.568 673 383.864C671.589 383.504 670.543 381.155 668.473 380.714C666.742 380.345 666.324 381.415 664.264 380.533C660.337 378.85 657.255 373.594 654.505 370.517Z" fill="#3D3D3D"/>
<path d="M746.791 254.894C745.665 254.56 744.557 254.164 743.473 253.71C740.557 252.835 736.699 254.977 737.087 257.994C737.346 259.999 739.213 261.35 740.244 263.089C741.774 265.668 741.366 268.939 740.562 271.826C740.365 272.721 739.99 273.566 739.459 274.312C738.717 275.1 737.829 275.738 736.846 276.191C732.908 278.397 729.435 281.345 726.619 284.871C726.313 285.197 726.099 285.599 726.001 286.034C725.862 287.053 726.887 287.795 727.466 288.645C728.754 290.532 727.823 293.072 727.95 295.352C727.931 295.675 727.994 295.997 728.134 296.288C728.274 296.579 728.486 296.83 728.75 297.016C729.526 297.41 730.445 296.741 730.866 295.98C732.261 293.454 731.21 289.399 733.828 288.182C734.323 287.951 734.923 287.854 735.254 287.419C735.778 286.73 735.272 285.709 735.538 284.885C735.936 283.648 737.63 283.592 738.93 283.647C741.169 283.741 743.407 283.443 745.544 282.767C746.382 282.568 747.143 282.128 747.733 281.501C748.516 280.525 748.446 279.138 748.29 277.897C747.507 271.712 745.546 265.735 742.514 260.286C744.813 260.58 747.315 260.834 749.299 259.637C750.41 258.966 751.743 256.961 751.191 255.597C750.32 253.439 748.746 255.255 746.791 254.894Z" fill="#3D3D3D"/>
<path d="M452 288.909C452.275 290.384 452.546 291.936 452.062 293.356C451.579 294.776 450.057 295.963 448.62 295.528C447.505 295.19 446.861 294.07 446.069 293.216C441.666 288.466 431.732 291.216 429.012 285.34C427.901 282.942 428.656 280.069 427.899 277.538C427.421 276.075 426.47 274.812 425.196 273.947C423.922 273.082 422.397 272.664 420.859 272.76C419.457 272.962 418.092 273.369 416.809 273.968C408.208 277.409 399.18 279.666 389.971 280.675C388.22 280.781 386.489 281.096 384.814 281.612C381.032 282.982 378.449 286.484 376.61 290.059C374.771 293.633 373.414 297.502 370.949 300.678C368.358 304.015 364.728 306.352 361.341 308.88C360.037 309.72 358.95 310.857 358.172 312.199C357.438 313.704 357.479 315.456 357.536 317.13L358.228 337.463C358.317 340.078 358.429 342.787 359.6 345.128C361.063 348.05 363.953 349.964 365.958 352.546C368.004 355.199 369.07 358.477 368.975 361.825C368.933 363.171 368.799 364.764 369.848 365.609C370.486 366.022 371.233 366.237 371.994 366.226L399.522 368.477C404.365 368.873 409.731 369.524 412.893 373.21C414.385 374.949 415.583 377.451 417.869 377.638C418.849 377.718 419.803 377.316 420.783 377.238C423.257 377.043 425.43 378.918 426.802 380.985C428.878 384.134 429.82 387.895 429.474 391.65C429.249 394.007 428.518 396.299 428.36 398.661C427.76 407.65 435.387 415.46 435.535 424.468C435.622 429.767 433.104 434.718 430.65 439.416C434.611 445.411 431.367 453.396 432.944 460.405C434.441 467.056 439.99 472.262 441.373 478.936C442.006 481.992 442.043 485.752 444.74 487.326C445.923 487.902 447.235 488.165 448.549 488.088C456.476 488.182 464.313 486.399 471.418 482.886C474.752 481.233 478.208 478.765 478.791 475.091C479.26 472.129 477.757 468.815 479.287 466.234C481.09 463.193 485.711 463.434 488.364 461.096C492.669 457.302 489.312 450.067 491.057 444.603C492.624 439.692 498.022 437.083 500.697 432.675C501.75 430.779 502.505 428.733 502.937 426.608C504.163 421.53 504.926 416.352 505.217 411.136C505.288 407.967 505.522 404.804 505.917 401.659C508.802 383.755 526.518 371.766 532.269 354.565C532.819 352.923 533.077 350.735 531.614 349.805C530.746 349.392 529.763 349.289 528.829 349.514L516.139 351.112C514.562 351.311 512.892 351.497 511.444 350.842C509.997 350.188 508.959 348.359 509.727 346.969C511.882 343.069 507.449 338.139 505.479 334.142C500.175 323.378 493.858 313.143 486.614 303.573C486.15 303.081 485.86 302.451 485.787 301.779L489.388 301.899C488.173 297.54 486.166 292.771 481.928 291.176C479.54 290.278 476.895 290.588 474.347 290.728C467.048 291.126 459.224 290.025 452 288.909Z" fill="#3D3D3D"/>
<path d="M474.353 190.685C476.263 192.712 478.403 194.86 481.166 195.213C486.047 195.837 489.556 190.795 491.79 186.414C491.873 187.531 492.388 188.571 493.227 189.314C494.066 190.057 495.161 190.444 496.281 190.392C497.485 190.189 498.635 189.74 499.658 189.073C509.328 183.793 520.16 180.995 531.18 180.931C531.074 180.097 531.281 179.253 531.761 178.563C532.241 177.872 532.96 177.384 533.779 177.192C536.02 176.748 538.038 178.684 539.119 180.694C540.2 182.705 540.874 185.035 542.591 186.54C544.308 188.045 547.633 187.979 548.311 185.8C548.962 183.708 546.781 181.924 544.968 180.69C543.156 179.457 541.245 177.174 542.466 175.354C551.725 173.306 561.042 171.25 570.516 170.843C572.129 170.899 573.736 170.623 575.238 170.03C576.682 169.322 577.831 167.714 577.442 166.153C575.375 166.639 573.209 166.498 571.222 165.75C569.235 165.001 567.516 163.677 566.284 161.948C579.431 160.864 593.413 159.941 605.064 166.121C606.462 169.12 599.337 171.615 601.243 174.32C601.851 175.182 603.07 175.283 604.125 175.303C612.222 175.453 620.365 175.6 628.369 174.379C631.295 173.933 634.25 173.303 637.186 173.665C642.078 174.268 646.262 177.529 651.075 178.592C653.034 179.025 655.23 179.039 656.882 177.901C658.533 176.763 659.242 174.171 657.889 172.691C662.421 168.254 669.941 169.353 675.919 171.478C681.897 173.602 687.561 177.028 693.888 177.502C698.425 177.841 703.025 176.622 707.508 177.397C710.325 177.884 712.947 179.136 715.701 179.905C720.908 181.36 726.417 181.053 731.824 181.123C745.62 181.309 759.266 184.018 772.085 189.116C773.752 189.659 775.28 190.561 776.56 191.758C777.753 193.035 778.361 195.018 777.56 196.569L764.314 194.636C765.562 197.09 768.79 197.509 771.412 198.355C774.035 199.202 776.753 202.095 775.177 204.354C772.336 203.45 769.762 206.288 768.327 208.9C766.892 211.511 765.143 214.638 762.165 214.797C759.499 214.94 756.275 212.671 754.537 214.697C756.938 217.723 758.994 221.007 760.667 224.488C762.383 228.062 763.606 232.565 761.286 235.78C760.921 236.354 760.367 236.783 759.72 236.994C757.824 237.473 756.593 235.157 755.234 233.753C753.521 231.983 750.931 231.482 748.612 230.652C746.292 229.823 743.849 228.19 743.668 225.736C743.555 224.208 744.362 222.789 744.956 221.377C745.955 218.998 746.392 216.42 746.233 213.845C746.103 211.773 745.522 209.618 744.033 208.171C742.543 206.723 739.972 206.264 738.373 207.59C737.627 208.208 737.03 209.198 736.061 209.235C734.349 209.3 733.035 206.319 731.658 207.336C731.819 208.421 731.594 209.528 731.022 210.463C726.913 214.034 720.599 212.523 715.302 213.785C712.782 214.505 710.37 215.558 708.129 216.914C707.291 217.272 706.578 217.871 706.079 218.634C705.418 219.918 706.147 221.562 707.313 222.416C708.549 223.173 709.938 223.647 711.38 223.803C717.838 225.025 724.391 226.917 729.491 231.062C734.59 235.207 737.934 242.058 736.32 248.425L723.583 236.265C724.067 241.371 724.341 246.491 724.407 251.625C724.489 252.627 724.351 253.635 724.003 254.579C723.095 256.583 720.634 257.257 718.477 257.699C717.878 257.813 717.309 258.053 716.808 258.402C716.307 258.751 715.886 259.202 715.573 259.725C715.259 260.249 715.059 260.832 714.987 261.438C714.915 262.044 714.972 262.658 715.155 263.24C715.921 265.735 717.831 267.681 719.581 269.619C721.33 271.558 723.052 273.761 723.281 276.361C723.51 278.961 721.546 281.892 718.94 281.711C716.965 281.574 715.499 279.807 714.656 278.016C713.814 276.226 713.312 274.231 712.046 272.71C708.214 268.105 699.606 270.078 696.173 265.168C695.298 266.16 694.691 267.359 694.41 268.651C694.129 269.943 694.183 271.285 694.568 272.55C696.165 271.551 698.351 272.48 699.551 273.931C700.751 275.383 701.317 277.244 702.259 278.874C703.531 281.074 705.555 283.024 705.732 285.558C705.685 286.517 705.701 287.477 705.781 288.433C706.096 289.969 707.395 291.071 708.296 292.355C710.391 295.341 710.288 299.444 708.937 302.832C707.586 306.221 705.16 309.052 702.756 311.797C698.558 316.592 694.274 321.358 689.297 325.34C687.876 326.476 686.361 327.593 685.476 329.182C684.592 330.77 684.546 333 685.906 334.208C684.933 334.257 683.189 334.735 682.216 334.784C681.874 330.885 681.8 326.968 681.994 323.06C678.156 321.219 674.023 326.15 674.519 330.375C675.014 334.6 678.072 337.99 680.25 341.646C681.842 344.319 683.026 347.436 682.494 350.501C681.963 353.566 679.224 356.393 676.123 356.123C671.189 355.693 669.125 348.617 664.24 347.807C663.809 347.706 663.357 347.751 662.954 347.934C662.229 348.332 662.103 349.301 662.062 350.127C661.862 354.179 661.689 358.392 663.272 362.127C665.588 367.592 671.571 372.182 670.316 377.983C663.555 374.843 660.04 367.268 658.444 359.991C656.848 352.715 656.582 345.076 653.721 338.198C651.549 340.98 646.983 338.68 644.998 335.761C643.116 332.994 641.958 329.794 640.132 326.99C638.306 324.185 635.51 321.675 632.165 321.52C628.658 321.359 625.617 323.763 622.943 326.035C620.743 327.903 618.485 329.844 617.2 332.427C615.329 336.184 615.819 340.614 615.728 344.81C615.631 349.346 614.669 354.132 611.574 357.453C608.48 360.774 602.769 361.93 599.356 358.937C597.574 357.375 596.711 355.04 595.943 352.8C592.238 341.998 589.154 330.994 586.703 319.842C586.129 322.387 583.892 325.668 581.755 324.169C581.276 323.766 580.887 323.266 580.615 322.701C576.629 315.951 569.246 311.902 561.788 309.474C554.329 307.046 546.481 305.914 539.105 303.245C534.971 301.75 531.023 299.785 527.338 297.389C526.398 298.768 525.85 300.375 525.75 302.04C525.651 303.706 526.004 305.367 526.772 306.847C528.408 309.742 532.111 311.417 535.281 310.405C536.918 309.882 538.302 308.746 539.927 308.185C541.552 307.624 543.733 307.9 544.444 309.464C545.124 310.961 544.096 312.773 544.606 314.336C545.383 316.717 548.977 316.901 550.234 319.068C551.169 320.68 550.4 322.821 549.064 324.122C547.729 325.423 545.948 326.136 544.318 327.042C539.029 329.98 535.268 334.996 530.646 338.899C526.024 342.801 519.503 345.651 513.994 343.147C515.307 336.504 507.387 331.627 505.93 325.014C505.451 322.838 505.699 320.526 505.015 318.405C504.023 315.333 501.296 313.222 499.059 310.895C496.346 308.041 494.232 304.674 492.842 300.991C491.453 297.308 490.815 293.384 490.968 289.451C491.089 286.718 491.591 283.94 490.968 281.276C490.345 278.612 488.138 276.034 485.402 276.155C479.155 276.431 471.284 276.895 468.006 271.574C466.836 269.674 466.327 266.893 468.018 265.438C469.212 264.411 470.973 264.508 472.54 264.662L486.617 266.046C489.909 266.369 493.468 266.636 496.293 264.917C499.119 263.197 500.343 258.632 497.727 256.609C495.815 255.13 492.391 255.211 491.835 252.86C491.372 250.902 493.541 248.681 492.37 247.045C491.53 245.872 489.642 246.198 488.497 247.077C487.353 247.957 486.523 249.243 485.243 249.908C482.997 251.076 480.313 249.965 477.896 249.209C475.479 248.454 472.239 248.39 471.067 250.632C469.756 253.14 472.23 256.427 470.929 258.94C469.209 262.263 463.384 260.371 460.968 263.229C458.196 266.509 462.854 271.399 461.92 275.589C460.726 276.18 459.4 276.451 458.07 276.376C456.74 276.302 455.453 275.884 454.333 275.163C453.232 274.415 452.354 273.382 451.793 272.175C451.232 270.968 451.01 269.631 451.148 268.308C451.38 266.423 452.363 264.499 451.704 262.718C451.171 261.278 449.724 260.421 448.379 259.678L434.7 252.125C433.43 254.479 435.035 257.398 437.043 259.166C439.052 260.934 441.567 262.266 442.886 264.592C443.72 266.205 443.907 268.074 443.409 269.819C442.91 271.565 441.764 273.054 440.203 273.983C440.008 274.118 439.785 274.209 439.551 274.25C439.317 274.291 439.077 274.28 438.847 274.219C438.629 274.091 438.439 273.921 438.288 273.718C438.137 273.515 438.028 273.284 437.968 273.038C435.554 266.867 431.931 260.782 426.137 257.558C420.343 254.334 412.019 254.997 408.219 260.428C407.317 261.718 406.711 263.188 405.925 264.552C401.749 271.797 392.795 275.228 384.43 275.004C383.612 275.049 382.797 274.858 382.085 274.453C380.733 273.52 380.794 271.541 381.001 269.912L381.879 263.001C382.055 261.613 382.311 260.079 383.41 259.213C384.96 257.992 387.195 258.762 389.169 258.734C390.664 258.664 392.102 258.136 393.287 257.223C394.472 256.309 395.347 255.053 395.793 253.626C396.192 252.184 396.189 250.662 395.786 249.222C395.382 247.781 394.593 246.479 393.504 245.454C392.599 244.605 391.385 243.538 391.863 242.394C392.053 242.078 392.311 241.807 392.618 241.6C392.924 241.394 393.273 241.257 393.638 241.2C397.183 240.171 400.929 239.902 404.414 238.688C407.9 237.474 411.281 234.991 412.106 231.396C412.359 230.295 412.475 228.96 413.465 228.414C413.962 228.204 414.496 228.096 415.035 228.094C416.925 227.825 418.646 226.859 419.859 225.386C421.071 223.914 421.689 222.041 421.588 220.136C423.259 218.97 425.6 219.828 427.216 221.068C428.832 222.309 430.259 223.948 432.225 224.482C435.89 225.479 439.432 222.237 443.23 222.222C444.827 222.216 446.481 222.78 447.983 222.239C449.507 221.69 450.416 220.175 451.585 219.056C452.754 217.937 454.806 217.254 455.885 218.46L454.966 211.656C456.817 212.124 458.747 212.19 460.627 211.85C462.506 211.511 464.29 210.774 465.861 209.688L453.979 205.677C453.566 205.574 453.184 205.37 452.868 205.084C452.005 204.154 452.863 202.706 453.565 201.65C455.245 199.123 455.527 194.96 452.764 193.702C450.878 192.843 448.713 193.874 446.903 194.882L438.231 199.713C437.956 201.36 439.971 202.294 441.22 203.403C441.976 204.074 442.511 204.958 442.755 205.938C442.998 206.919 442.94 207.95 442.586 208.897C442.233 209.843 441.601 210.66 440.774 211.242C439.947 211.823 438.963 212.14 437.952 212.153C438.523 212.895 438.92 213.755 439.113 214.671C439.306 215.587 439.29 216.534 439.067 217.443L433.233 217.862C432.578 217.994 431.898 217.861 431.34 217.493C430.716 216.939 430.801 215.969 430.656 215.148C430.307 213.166 428.365 211.776 426.382 211.42C424.399 211.064 422.371 211.52 420.408 211.971C419.574 212.271 418.659 212.25 417.84 211.912C417.37 211.607 417.014 211.157 416.824 210.631C415.963 208.546 416.768 206.095 418.15 204.312C419.533 202.529 421.425 201.225 423.124 199.741C427.189 196.178 430.175 191.55 431.745 186.381C434.957 185.036 438.282 183.21 441.494 181.865C446.446 179.36 451.999 178.285 457.529 178.761L468.407 178.968C471.627 179.03 474.935 179.109 477.913 180.335C480.891 181.562 483.507 184.215 483.713 187.427C483.775 187.791 483.743 188.164 483.621 188.512C483.499 188.86 483.291 189.172 483.015 189.417C482.595 189.646 482.119 189.754 481.64 189.727C478.637 189.832 477.356 190.58 474.353 190.685Z" fill="#3D3D3D"/>
<path d="M387.652 224.746C388.077 224.344 388.383 223.833 388.536 223.269C388.689 222.705 388.684 222.109 388.52 221.548C387.486 221.149 386.361 221.047 385.272 221.252C384.183 221.458 383.173 221.963 382.355 222.711C381.711 223.362 381.156 224.096 380.704 224.892C379.274 227.222 378.01 230.005 378.839 232.61C378.906 232.894 379.03 233.162 379.202 233.397C379.375 233.633 379.592 233.832 379.843 233.982C380.214 234.131 380.614 234.194 381.013 234.165C382.588 234.163 384.161 234.067 385.724 233.876C386.684 233.758 387.799 233.488 388.17 232.595C388.657 231.423 387.477 230.095 387.821 228.873C388.047 228.326 388.39 227.835 388.826 227.434C389.042 227.233 389.208 226.983 389.311 226.706C389.414 226.429 389.451 226.132 389.419 225.838C389.28 225.265 388.401 224.939 388.084 225.438" fill="#3D3D3D"/>
<path d="M395.817 214.17C394.418 213.849 392.977 213.758 391.549 213.902C391.233 213.892 390.92 213.963 390.639 214.108C390.367 214.309 390.17 214.594 390.079 214.919C389.777 215.886 389.851 216.932 390.286 217.847C390.721 218.762 391.485 219.479 392.426 219.857C392.939 219.975 393.43 220.172 393.882 220.441C395.09 221.377 394.32 223.29 394.548 224.8C394.805 226.495 396.447 227.918 396.146 229.606C395.909 230.935 394.488 231.988 394.716 233.32C394.956 234.714 396.727 235.133 398.138 235.244C398.956 235.387 399.798 235.291 400.563 234.967C401.329 234.443 401.874 233.655 402.092 232.754C402.67 231.035 402.913 229.222 402.808 227.412C402.801 226.589 402.594 225.78 402.205 225.054C401.78 224.48 401.309 223.941 400.796 223.443C398.092 220.3 400.939 215.612 395.817 214.17Z" fill="#3D3D3D"/>
<path opacity="0.8" d="M751.419 460.37C751.419 460.37 544.301 341.583 455.134 364.09C455.134 364.09 266.163 384.409 244.263 429.11C244.263 429.11 184.192 241.553 162.292 235.301" stroke="#4285F4" stroke-width="2" stroke-miterlimit="10"/>
<path opacity="0.8" d="M244.263 429.11C278.991 336.582 591.857 234.051 591.857 234.051C547.43 245.304 455.134 364.09 455.134 364.09C455.134 364.09 259.906 222.172 162.292 235.301C162.292 235.301 592.17 249.368 751.419 460.37" stroke="#4285F4" stroke-width="2" stroke-miterlimit="10"/>
<path d="M162.292 244.366C167.303 244.366 171.365 240.308 171.365 235.301C171.365 230.295 167.303 226.236 162.292 226.236C157.281 226.236 153.219 230.295 153.219 235.301C153.219 240.308 157.281 244.366 162.292 244.366Z" fill="#FBBC05"/>
<path d="M244.263 438.175C249.274 438.175 253.336 434.117 253.336 429.11C253.336 424.103 249.274 420.045 244.263 420.045C239.252 420.045 235.19 424.103 235.19 429.11C235.19 434.117 239.252 438.175 244.263 438.175Z" fill="#34A853"/>
<path d="M591.857 243.116C596.868 243.116 600.93 239.057 600.93 234.051C600.93 229.044 596.868 224.985 591.857 224.985C586.846 224.985 582.784 229.044 582.784 234.051C582.784 239.057 586.846 243.116 591.857 243.116Z" fill="#34A853"/>
<path d="M751.419 469.435C756.43 469.435 760.492 465.376 760.492 460.37C760.492 455.363 756.43 451.304 751.419 451.304C746.408 451.304 742.346 455.363 742.346 460.37C742.346 465.376 746.408 469.435 751.419 469.435Z" fill="#FBBC05"/>
<path d="M455.135 373.156C460.146 373.156 464.208 369.097 464.208 364.09C464.208 359.084 460.146 355.025 455.135 355.025C450.124 355.025 446.062 359.084 446.062 364.09C446.062 369.097 450.124 373.156 455.135 373.156Z" fill="#EA4335"/>
</g>
<defs>
<clipPath id="clip0_164:3">
<rect width="892" height="662" fill="white"/>
</clipPath>
</defs>
</svg>