<svg width="79" height="79" viewBox="0 0 79 79" fill="none" xmlns="http://www.w3.org/2000/svg">
<circle cx="39.1245" cy="39.1245" r="36.1245" fill="white" stroke="#4285F4" stroke-width="6"/>
<path d="M49.514 28.9056C47.5597 28.0088 45.4976 27.3687 43.379 27.0013C43.3598 26.9981 43.3401 27.0009 43.3226 27.0093C43.305 27.0177 43.2905 27.0314 43.2811 27.0484C43.0155 27.5193 42.7216 28.1352 42.5163 28.6175C40.2326 28.2709 37.9097 28.2709 35.626 28.6175C35.397 28.0803 35.1379 27.5564 34.85 27.0484C34.8403 27.0316 34.8258 27.0181 34.8083 27.0097C34.7908 27.0013 34.7712 26.9984 34.752 27.0013C32.633 27.3667 30.5704 28.0072 28.6171 28.9056C28.6004 28.912 28.5864 28.924 28.5775 28.9396C24.6709 34.7769 23.5991 40.4711 24.1246 46.0937C24.1265 46.1201 24.1435 46.1464 24.1642 46.1634C26.4391 47.8485 28.9836 49.1351 31.6893 49.9683C31.7084 49.9743 31.7289 49.9741 31.7479 49.9677C31.7668 49.9612 31.7832 49.9489 31.7947 49.9325C32.3749 49.1414 32.891 48.3069 33.3355 47.4292C33.3448 47.4111 33.348 47.3905 33.3446 47.3705C33.3412 47.3504 33.3314 47.3321 33.3167 47.318C33.307 47.3088 33.2954 47.3018 33.2828 47.2973C32.4713 46.9854 31.6853 46.6107 30.932 46.1766C30.911 46.1646 30.8954 46.1451 30.8883 46.1219C30.8813 46.0988 30.8835 46.0738 30.8944 46.0522C30.9008 46.0382 30.9105 46.0259 30.9226 46.0165C31.0808 45.8978 31.2391 45.7735 31.3898 45.6491C31.4031 45.6384 31.419 45.6316 31.436 45.6292C31.4529 45.6269 31.4701 45.6292 31.4858 45.636C36.419 47.8888 41.7591 47.8888 46.632 45.636C46.6483 45.6289 46.6662 45.6264 46.6838 45.6287C46.7013 45.6311 46.718 45.6381 46.7318 45.6491C46.8825 45.7735 47.0408 45.8978 47.199 46.0165C47.2118 46.0258 47.2221 46.0382 47.229 46.0525C47.2358 46.0669 47.239 46.0827 47.2383 46.0985C47.2375 46.1144 47.2329 46.1298 47.2247 46.1434C47.2165 46.1571 47.2051 46.1684 47.1915 46.1766C46.4399 46.6147 45.6529 46.989 44.8388 47.2954C44.8258 47.3001 44.814 47.3076 44.8043 47.3174C44.7945 47.3272 44.787 47.339 44.7823 47.3519C44.7779 47.3645 44.7762 47.3779 44.7772 47.3911C44.7781 47.4044 44.7818 47.4174 44.788 47.4292C45.24 48.3051 45.758 49.1414 46.3269 49.9325C46.3384 49.9489 46.3548 49.9612 46.3738 49.9677C46.3927 49.9741 46.4133 49.9743 46.4324 49.9683C49.1425 49.1377 51.6912 47.8509 53.9687 46.1634C53.9801 46.1555 53.9896 46.1451 53.9965 46.133C54.0033 46.121 54.0073 46.1075 54.0083 46.0937C54.6374 39.5933 52.9553 33.9462 49.5516 28.9414C49.5482 28.9332 49.5431 28.9257 49.5366 28.9196C49.5301 28.9134 49.5224 28.9087 49.514 28.9056ZM34.072 42.6693C32.5859 42.6693 31.3634 41.3055 31.3634 39.6329C31.3634 37.9583 32.5633 36.5946 34.072 36.5946C35.5921 36.5946 36.8033 37.9696 36.7807 39.6329C36.7807 41.3055 35.5808 42.6693 34.072 42.6693ZM44.0854 42.6693C42.6011 42.6693 41.3767 41.3055 41.3767 39.6329C41.3767 37.9583 42.5766 36.5946 44.0854 36.5946C45.6054 36.5946 46.8185 37.9696 46.794 39.6329C46.794 41.3055 45.6054 42.6693 44.0854 42.6693Z" fill="#4285F4"/>
</svg>
