<svg width="156" height="356" viewBox="0 0 156 356" fill="none" xmlns="http://www.w3.org/2000/svg">
<g opacity="0.3" clip-path="url(#clip0_164:47)">
<path d="M2.0963 49.5484C-0.12608 49.1314 -2.87448 50.0816 -4.32921 51.774C-7.14141 55.0259 -5.5071 60.7489 -1.40173 62.0253C1.68375 62.9921 5.39463 61.3615 6.60544 58.5519C7.45102 56.5677 7.11206 53.8551 5.81259 51.9877C5.01107 50.8644 3.40194 49.8066 2.0963 49.5484Z" fill="#607D8B"/>
<path d="M24.954 62.2511C22.7316 61.8341 19.9832 62.7842 18.5285 64.4766C15.7163 67.7285 17.3506 73.4515 21.4559 74.728C24.5414 75.6947 28.2523 74.0641 29.4631 71.2545C30.3087 69.2703 29.9697 66.5577 28.6703 64.6903C27.8687 63.5671 26.2596 62.5092 24.954 62.2511Z" fill="#607D8B"/>
<path d="M47.8116 74.9537C45.5892 74.5367 42.8408 75.4868 41.3861 77.1793C38.5739 80.4312 40.2082 86.1541 44.3136 87.4306C47.399 88.3974 51.1099 86.7667 52.3207 83.9571C53.1663 81.9729 52.8274 79.2603 51.5279 77.3929C50.7264 76.2697 49.1173 75.2118 47.8116 74.9537Z" fill="#607D8B"/>
<path d="M70.6691 87.6564C68.4467 87.2394 65.6983 88.1895 64.2435 89.8819C61.4313 93.1338 63.0657 98.8568 67.171 100.133C70.2565 101.1 73.9674 99.4694 75.1782 96.6598C76.0238 94.6756 75.6848 91.963 74.3854 90.0956C73.5838 88.9723 71.9747 87.9145 70.6691 87.6564Z" fill="#607D8B"/>
<path d="M93.5267 100.359C91.3043 99.942 88.5559 100.892 87.1012 102.585C84.289 105.837 85.9233 111.559 90.0287 112.836C93.1141 113.803 96.825 112.172 98.0358 109.362C98.8814 107.378 98.5425 104.666 97.243 102.798C96.4415 101.675 94.8323 100.617 93.5267 100.359Z" fill="#607D8B"/>
<path d="M116.384 113.062C114.162 112.645 111.413 113.595 109.959 115.287C108.351 117.128 108.109 119.962 109.329 122.393C110.505 124.776 112.674 126.005 115.317 125.791C119.649 125.44 122.261 121.75 121.076 117.656C120.412 115.277 118.561 113.477 116.384 113.062Z" fill="#607D8B"/>
<path d="M139.242 125.764C137.019 125.347 134.271 126.297 132.816 127.99C131.209 129.831 130.966 132.665 132.186 135.096C133.363 137.479 135.531 138.707 138.174 138.493C142.506 138.143 145.118 134.452 143.934 130.359C143.269 127.979 141.418 126.179 139.242 125.764Z" fill="#607D8B"/>
<path d="M12.2513 85.1086C10.0289 84.6916 7.28055 85.6417 5.82582 87.3342C3.01362 90.5861 4.64793 96.309 8.7533 97.5855C11.8388 98.5523 15.5497 96.9217 16.7605 94.1121C17.606 92.1279 17.2671 89.4153 15.9676 87.5478C15.1661 86.4246 13.557 85.3668 12.2513 85.1086Z" fill="#607D8B"/>
<path d="M35.1087 97.8113C32.8864 97.3943 30.138 98.3444 28.6832 100.037C25.871 103.289 27.5053 109.012 31.6107 110.288C34.6962 111.255 38.407 109.624 39.6178 106.815C40.4634 104.83 40.1245 102.118 38.825 100.25C38.0235 99.1272 36.4144 98.0694 35.1087 97.8113Z" fill="#607D8B"/>
<path d="M57.9664 110.514C55.744 110.097 52.9956 111.047 51.5409 112.739C48.7287 115.991 50.363 121.714 54.4684 122.991C57.5539 123.958 61.2648 122.327 62.4756 119.517C63.3212 117.533 62.9822 114.821 61.6827 112.953C60.8812 111.83 59.2721 110.772 57.9664 110.514Z" fill="#607D8B"/>
<path d="M80.8241 123.217C78.6017 122.8 75.8533 123.75 74.3986 125.442C71.5864 128.694 73.2207 134.417 77.326 135.694C80.4115 136.66 84.1224 135.03 85.3332 132.22C86.1788 130.236 85.8398 127.523 84.5403 125.656C83.7388 124.533 82.1297 123.475 80.8241 123.217Z" fill="#607D8B"/>
<path d="M103.682 135.919C101.459 135.502 98.7108 136.452 97.256 138.145C95.6485 139.986 95.406 142.82 96.6261 145.25C97.8024 147.634 99.9711 148.862 102.614 148.648C106.946 148.298 109.558 144.607 108.374 140.514C107.709 138.134 105.858 136.334 103.682 135.919Z" fill="#607D8B"/>
<path d="M126.539 148.622C124.317 148.205 121.568 149.155 120.113 150.847C118.506 152.689 118.263 155.522 119.483 157.953C120.66 160.336 122.829 161.565 125.472 161.351C129.803 161 132.415 157.31 131.231 153.216C130.567 150.837 128.716 149.037 126.539 148.622Z" fill="#607D8B"/>
<path d="M-0.451301 107.966C-2.67368 107.549 -5.42208 108.499 -6.87681 110.192C-9.68902 113.444 -8.05471 119.167 -3.94933 120.443C-0.863849 121.41 2.84704 119.779 4.05785 116.97C4.90343 114.985 4.56447 112.273 3.265 110.405C2.46348 109.282 0.854344 108.224 -0.451301 107.966Z" fill="#607D8B"/>
<path d="M22.4061 120.669C20.1837 120.252 17.4353 121.202 15.9806 122.894C13.1684 126.146 14.8027 131.869 18.9081 133.146C21.9935 134.112 25.7044 132.482 26.9152 129.672C27.7608 127.688 27.4219 124.975 26.1224 123.108C25.3209 121.985 23.7117 120.927 22.4061 120.669Z" fill="#607D8B"/>
<path d="M45.2638 133.371C43.0414 132.954 40.293 133.905 38.8383 135.597C36.0261 138.849 37.6604 144.572 41.7658 145.848C44.8512 146.815 48.5621 145.184 49.7729 142.375C50.6185 140.391 50.2796 137.678 48.9801 135.811C48.1786 134.687 46.5694 133.63 45.2638 133.371Z" fill="#607D8B"/>
<path d="M68.1214 146.074C65.8991 145.657 63.1507 146.607 61.6959 148.3C58.8837 151.552 60.518 157.275 64.6234 158.551C67.7089 159.518 71.4198 157.887 72.6306 155.078C73.4761 153.093 73.1372 150.381 71.8377 148.513C71.0362 147.39 69.4271 146.332 68.1214 146.074Z" fill="#607D8B"/>
<path d="M90.9789 158.777C88.7565 158.36 86.0081 159.31 84.5534 161.002C81.7412 164.254 83.3755 169.977 87.4809 171.254C90.5663 172.221 94.2772 170.59 95.488 167.78C96.3336 165.796 95.9947 163.083 94.6952 161.216C93.8937 160.093 92.2845 159.035 90.9789 158.777Z" fill="#607D8B"/>
<path d="M113.837 171.479C111.614 171.062 108.866 172.013 107.411 173.705C104.599 176.957 106.233 182.68 110.339 183.956C113.424 184.923 117.135 183.293 118.346 180.483C119.191 178.499 118.852 175.786 117.553 173.919C116.751 172.795 115.142 171.738 113.837 171.479Z" fill="#607D8B"/>
<path d="M9.70346 143.526C7.48109 143.109 4.7327 144.06 3.27797 145.752C0.465768 149.004 2.10007 154.727 6.20543 156.003C9.2909 156.97 13.0018 155.339 14.2126 152.53C15.0582 150.546 14.7192 147.833 13.4197 145.966C12.6182 144.842 11.0091 143.785 9.70346 143.526Z" fill="#607D8B"/>
<path d="M32.5611 156.229C30.3388 155.812 27.5904 156.762 26.1356 158.455C23.3234 161.706 24.9577 167.429 29.0631 168.706C32.1486 169.673 35.8595 168.042 37.0703 165.232C37.9159 163.248 37.5769 160.536 36.2774 158.668C35.4759 157.545 33.8668 156.487 32.5611 156.229Z" fill="#607D8B"/>
<path d="M55.4188 168.932C53.1964 168.515 50.448 169.465 48.9933 171.157C46.1811 174.409 47.8154 180.132 51.9208 181.409C55.0062 182.375 58.7171 180.745 59.9279 177.935C60.7735 175.951 60.4345 173.238 59.1351 171.371C58.3336 170.248 56.7244 169.19 55.4188 168.932Z" fill="#607D8B"/>
<path d="M78.2765 181.634C76.0541 181.217 73.3057 182.168 71.851 183.86C69.0388 187.112 70.6731 192.835 74.7785 194.111C77.8639 195.078 81.5748 193.447 82.7856 190.638C83.6312 188.654 83.2923 185.941 81.9928 184.074C81.1913 182.95 79.5821 181.893 78.2765 181.634Z" fill="#607D8B"/>
<path d="M101.134 194.337C98.9115 193.92 96.1631 194.87 94.7084 196.563C91.8962 199.814 93.5305 205.537 97.6359 206.814C100.721 207.781 104.432 206.15 105.643 203.34C106.489 201.356 106.15 198.644 104.85 196.776C104.049 195.653 102.44 194.595 101.134 194.337Z" fill="#607D8B"/>
<path d="M-2.99918 166.384C-5.22155 165.967 -7.96994 166.917 -9.42467 168.609C-12.2369 171.861 -10.6026 177.584 -6.49721 178.861C-3.41174 179.828 0.29913 178.197 1.50994 175.387C2.35552 173.403 2.01657 170.691 0.7171 168.823C-0.084408 167.7 -1.69354 166.642 -2.99918 166.384Z" fill="#607D8B"/>
<path d="M19.8585 179.087C17.6361 178.67 14.8877 179.62 13.433 181.312C10.6208 184.564 12.2551 190.287 16.3605 191.563C19.4459 192.53 23.1568 190.9 24.3676 188.09C25.2132 186.106 24.8743 183.393 23.5748 181.526C22.7733 180.403 21.1641 179.345 19.8585 179.087Z" fill="#607D8B"/>
<path d="M42.7162 191.789C40.4938 191.372 37.7454 192.322 36.2907 194.015C33.4785 197.267 35.1128 202.99 39.2181 204.266C42.3036 205.233 46.0145 203.602 47.2253 200.793C48.0709 198.809 47.7319 196.096 46.4325 194.229C45.6309 193.105 44.0218 192.047 42.7162 191.789Z" fill="#607D8B"/>
<path d="M65.5736 204.492C63.3512 204.075 60.6028 205.025 59.1481 206.717C56.3359 209.969 57.9702 215.692 62.0756 216.969C65.1611 217.936 68.872 216.305 70.0828 213.495C70.9283 211.511 70.5894 208.799 69.2899 206.931C68.4884 205.808 66.8792 204.75 65.5736 204.492Z" fill="#607D8B"/>
<path d="M88.4313 217.195C86.2089 216.778 83.4605 217.728 82.0058 219.42C79.1935 222.672 80.8279 228.395 84.9332 229.671C88.0187 230.638 91.7296 229.008 92.9404 226.198C93.786 224.214 93.447 221.501 92.1476 219.634C91.346 218.511 89.7369 217.453 88.4313 217.195Z" fill="#607D8B"/>
<path d="M7.15589 201.944C4.93351 201.527 2.1851 202.477 0.730373 204.17C-2.08184 207.422 -0.447529 213.145 3.65785 214.421C6.74333 215.388 10.4542 213.757 11.665 210.948C12.5106 208.963 12.1717 206.251 10.8722 204.383C10.0707 203.26 8.46153 202.202 7.15589 201.944Z" fill="#607D8B"/>
<path d="M30.0135 214.647C27.7912 214.23 25.0428 215.18 23.588 216.872C20.7758 220.124 22.4101 225.847 26.5155 227.124C29.601 228.091 33.3118 226.46 34.5226 223.65C35.3682 221.666 35.0293 218.953 33.7298 217.086C32.9283 215.963 31.3192 214.905 30.0135 214.647Z" fill="#607D8B"/>
<path d="M52.871 227.35C50.6486 226.933 47.9002 227.883 46.4455 229.575C43.6332 232.827 45.2676 238.55 49.3729 239.826C52.4584 240.793 56.1693 239.163 57.3801 236.353C58.2257 234.369 57.8868 231.656 56.5873 229.789C55.7858 228.666 54.1766 227.608 52.871 227.35Z" fill="#607D8B"/>
<path d="M75.7286 240.052C73.5063 239.635 70.7579 240.585 69.3031 242.278C66.4909 245.53 68.1252 251.253 72.2306 252.529C75.3161 253.496 79.027 251.865 80.2378 249.056C81.0834 247.071 80.7444 244.359 79.4449 242.491C78.6434 241.368 77.0343 240.31 75.7286 240.052Z" fill="#607D8B"/>
<path d="M-5.54698 224.802C-8.73965 224.196 -12.2085 226.148 -13.1038 229.063C-13.8383 231.436 -12.9577 234.52 -11.0808 236.147C-8.04116 238.795 -2.63573 237.522 -1.03786 233.805C-0.192276 231.821 -0.531227 229.108 -1.8307 227.241C-2.63221 226.118 -4.24134 225.06 -5.54698 224.802Z" fill="#607D8B"/>
<path d="M17.3107 237.504C14.118 236.899 10.6492 238.851 9.75387 241.766C9.01935 244.139 9.89997 247.223 11.7769 248.85C14.8165 251.497 20.222 250.224 21.8198 246.508C22.6654 244.524 22.3265 241.811 21.027 239.944C20.2255 238.82 18.6163 237.763 17.3107 237.504Z" fill="#607D8B"/>
<path d="M40.1683 250.207C37.9459 249.79 35.1975 250.74 33.7428 252.433C30.9306 255.685 32.5649 261.408 36.6703 262.684C39.7558 263.651 43.4667 262.02 44.6775 259.211C45.5231 257.226 45.1841 254.514 43.8846 252.646C43.0831 251.523 41.474 250.465 40.1683 250.207Z" fill="#607D8B"/>
<path d="M63.026 262.91C60.8036 262.493 58.0552 263.443 56.6005 265.135C53.7883 268.387 55.4226 274.11 59.528 275.387C62.6135 276.353 66.3243 274.723 67.5351 271.913C68.3807 269.929 68.0418 267.216 66.7423 265.349C65.9408 264.226 64.3316 263.168 63.026 262.91Z" fill="#607D8B"/>
<path d="M4.60806 260.362C1.41538 259.756 -2.05346 261.708 -2.94877 264.623C-3.68328 266.996 -2.80265 270.08 -0.925708 271.707C2.11391 274.355 7.51935 273.082 9.11722 269.365C9.9628 267.381 9.62384 264.669 8.32436 262.801C7.52285 261.678 5.91371 260.62 4.60806 260.362Z" fill="#607D8B"/>
<path d="M27.4657 273.065C25.2433 272.648 22.4949 273.598 21.0402 275.29C18.228 278.542 19.8623 284.265 23.9677 285.542C27.0532 286.508 30.7641 284.878 31.9749 282.068C32.8205 280.084 32.4815 277.371 31.182 275.504C30.3805 274.381 28.7714 273.323 27.4657 273.065Z" fill="#607D8B"/>
<path d="M50.3234 285.767C48.101 285.35 45.3526 286.3 43.8979 287.993C41.0856 291.245 42.7199 296.968 46.8253 298.244C49.9108 299.211 53.6217 297.58 54.8325 294.771C55.6781 292.787 55.3391 290.074 54.0397 288.206C53.2381 287.083 51.629 286.025 50.3234 285.767Z" fill="#607D8B"/>
<path d="M14.7631 295.922C12.5407 295.505 9.79228 296.455 8.33755 298.148C5.52534 301.4 7.15965 307.123 11.265 308.399C14.3505 309.366 18.0614 307.735 19.2722 304.926C20.1178 302.941 19.7788 300.229 18.4794 298.361C17.6778 297.238 16.0687 296.18 14.7631 295.922Z" fill="#607D8B"/>
<path d="M37.6207 308.625C35.3983 308.208 32.6499 309.158 31.1952 310.85C28.383 314.102 30.0173 319.825 34.1227 321.102C37.2082 322.069 40.9191 320.438 42.1299 317.628C42.9755 315.644 42.6365 312.932 41.337 311.064C40.5355 309.941 38.9264 308.883 37.6207 308.625Z" fill="#607D8B"/>
<path d="M2.06042 318.78C-0.161955 318.363 -2.91036 319.313 -4.36509 321.005C-7.1773 324.257 -5.54298 329.98 -1.4376 331.257C1.64788 332.223 5.35877 330.593 6.56958 327.783C7.41516 325.799 7.0762 323.086 5.77672 321.219C4.97521 320.096 3.36607 319.038 2.06042 318.78Z" fill="#607D8B"/>
<path d="M24.9181 331.483C22.6957 331.066 19.9473 332.016 18.4926 333.708C15.6804 336.96 17.3147 342.683 21.42 343.959C24.5055 344.926 28.2164 343.296 29.4272 340.486C30.2728 338.502 29.9338 335.789 28.6344 333.922C27.8329 332.799 26.2237 331.741 24.9181 331.483Z" fill="#607D8B"/>
</g>
<defs>
<clipPath id="clip0_164:47">
<rect width="261.501" height="261.501" fill="white" transform="translate(-72.9734) rotate(29.0623)"/>
</clipPath>
</defs>
</svg>